%FSLAX23Y23*%
%MOIN*%
G70*
G01*
G75*
%ADD10O,0.022X0.039*%
%ADD11R,0.022X0.039*%
%ADD12R,0.118X0.039*%
%ADD13R,0.118X0.059*%
%ADD14R,0.024X0.020*%
%ADD15R,0.050X0.050*%
%ADD16C,0.010*%
%ADD17C,0.005*%
%ADD18R,0.740X1.090*%
%ADD19C,0.020*%
%ADD20C,0.050*%
%ADD21C,0.039*%
%ADD22C,0.236*%
%ADD23C,0.008*%
%ADD24C,0.004*%
D16*
X1585Y380D02*
Y780D01*
X1335D02*
X1585D01*
X1330Y775D02*
X1335Y780D01*
X1330Y380D02*
Y775D01*
Y380D02*
X1585D01*
D17*
X888Y647D02*
X885Y650D01*
X878D01*
X875Y647D01*
Y633D01*
X878Y630D01*
X885D01*
X888Y633D01*
X895Y647D02*
X898Y650D01*
X905D01*
X908Y647D01*
Y643D01*
X905Y640D01*
X902D01*
X905D01*
X908Y637D01*
Y633D01*
X905Y630D01*
X898D01*
X895Y633D01*
X855Y390D02*
Y370D01*
X868D01*
X1043Y517D02*
X1040Y520D01*
X1033D01*
X1030Y517D01*
Y503D01*
X1033Y500D01*
X1040D01*
X1043Y503D01*
X1063Y500D02*
X1050D01*
X1063Y513D01*
Y517D01*
X1060Y520D01*
X1053D01*
X1050Y517D01*
D23*
X950Y785D02*
G03*
X950Y760I0J-12D01*
G01*
X835Y795D02*
X950D01*
X835Y750D02*
Y795D01*
Y750D02*
X950D01*
Y760D01*
Y785D02*
Y794D01*
D24*
X1167Y543D02*
Y607D01*
X1023D02*
X1083D01*
X1107D02*
X1167D01*
X1107Y543D02*
X1167D01*
X1023D02*
X1083D01*
X1023D02*
Y607D01*
M02*
