M48
;Layer_Color=9474304
;FILE_FORMAT=2:3
INCH,TZ
;TYPE=PLATED
T1F00S00C0.012
T2F00S00C0.020
T3F00S00C0.028
T4F00S00C0.118
%
T01
X1000Y465
Y825
T02
X1132Y87
X1106Y150
X1132Y213
X1195Y239
X1258Y213
X1284Y150
X1258Y87
X1195Y61
Y971
X1132Y997
X1106Y1060
X1132Y1123
X1195Y1149
X1258Y1123
X1284Y1060
X1258Y997
T03
X605Y135
Y1035
T04
X1195Y150
Y1060
M30
