%FSLAX23Y23*%
%MOIN*%
G70*
G01*
G75*
G04 Layer_Color=8388736*
%ADD10O,0.022X0.039*%
%ADD11R,0.022X0.039*%
%ADD12R,0.118X0.039*%
%ADD13R,0.118X0.059*%
%ADD14R,0.024X0.020*%
%ADD15R,0.050X0.050*%
%ADD16C,0.010*%
%ADD17C,0.005*%
%ADD18R,0.740X1.090*%
%ADD19C,0.020*%
%ADD20C,0.050*%
%ADD21C,0.039*%
%ADD22C,0.236*%
%ADD23C,0.008*%
%ADD24C,0.004*%
%ADD25C,0.059*%
%ADD26R,0.605X0.930*%
%ADD27O,0.030X0.047*%
%ADD28R,0.030X0.047*%
%ADD29R,0.126X0.047*%
%ADD30R,0.126X0.067*%
%ADD31R,0.032X0.028*%
%ADD32R,0.058X0.058*%
%ADD33C,0.028*%
%ADD34C,0.058*%
D17*
X1515Y75D02*
X1510Y70D01*
Y60D01*
X1515Y55D01*
X1520D01*
X1525Y60D01*
Y70D01*
X1530Y75D01*
X1535D01*
X1540Y70D01*
Y60D01*
X1535Y55D01*
X1540Y100D02*
Y90D01*
X1535Y85D01*
X1525D01*
X1520Y90D01*
Y100D01*
X1525Y105D01*
X1530D01*
Y85D01*
X1540Y115D02*
X1520D01*
Y130D01*
X1525Y135D01*
X1540D01*
Y145D02*
Y160D01*
X1535Y165D01*
X1530Y160D01*
Y150D01*
X1525Y145D01*
X1520Y150D01*
Y165D01*
X1540Y180D02*
Y190D01*
X1535Y195D01*
X1525D01*
X1520Y190D01*
Y180D01*
X1525Y175D01*
X1535D01*
X1540Y180D01*
X1520Y205D02*
X1540D01*
X1530D01*
X1525Y210D01*
X1520Y215D01*
Y220D01*
X1510Y265D02*
X1530D01*
X1540Y275D01*
X1530Y285D01*
X1510D01*
X1540Y315D02*
Y295D01*
X1520Y315D01*
X1515D01*
X1510Y310D01*
Y300D01*
X1515Y295D01*
X1455Y95D02*
Y115D01*
Y105D01*
X1485D01*
Y130D02*
Y140D01*
X1480Y145D01*
X1470D01*
X1465Y140D01*
Y130D01*
X1470Y125D01*
X1480D01*
X1485Y130D01*
X1465Y155D02*
X1480D01*
X1485Y160D01*
Y175D01*
X1465D01*
Y205D02*
Y190D01*
X1470Y185D01*
X1480D01*
X1485Y190D01*
Y205D01*
X1455Y215D02*
X1485D01*
X1470D01*
X1465Y220D01*
Y230D01*
X1470Y235D01*
X1485D01*
D21*
X1132Y1123D02*
D03*
X1258D02*
D03*
X1195Y1149D02*
D03*
X1106Y1060D02*
D03*
X1132Y997D02*
D03*
X1195Y971D02*
D03*
X1258Y997D02*
D03*
X1284Y1060D02*
D03*
X1132Y213D02*
D03*
X1258D02*
D03*
X1195Y239D02*
D03*
X1106Y150D02*
D03*
X1132Y87D02*
D03*
X1195Y61D02*
D03*
X1258Y87D02*
D03*
X1284Y150D02*
D03*
D22*
X1195Y1060D02*
D03*
Y150D02*
D03*
D25*
X1284Y1060D02*
G03*
X1284Y1060I-89J0D01*
G01*
Y150D02*
G03*
X1284Y150I-89J0D01*
G01*
D26*
X433Y590D02*
D03*
D27*
X855Y719D02*
D03*
X893D02*
D03*
X930D02*
D03*
X855Y825D02*
D03*
X893D02*
D03*
D28*
X930D02*
D03*
D29*
X1330Y659D02*
D03*
Y580D02*
D03*
Y501D02*
D03*
Y659D02*
D03*
D30*
X1527Y745D02*
D03*
Y415D02*
D03*
D31*
X1095Y675D02*
D03*
X1135D02*
D03*
X1125Y825D02*
D03*
X1085D02*
D03*
X865Y465D02*
D03*
X905D02*
D03*
X905Y335D02*
D03*
X865D02*
D03*
X865Y595D02*
D03*
X905D02*
D03*
D32*
X1055Y575D02*
D03*
X1135D02*
D03*
D33*
X1000Y825D02*
D03*
Y465D02*
D03*
D34*
X605Y135D02*
D03*
Y1035D02*
D03*
M02*
