%FSLAX23Y23*%
%MOIN*%
G70*
G01*
G75*
%ADD10C,0.004*%
%ADD11C,0.005*%
%ADD12C,0.007*%
D10*
X1093Y663D02*
Y687D01*
X1137Y663D02*
Y687D01*
X1093D02*
X1137D01*
X1093Y663D02*
X1137D01*
X1127Y813D02*
Y837D01*
X1083Y813D02*
Y837D01*
Y813D02*
X1127D01*
X1083Y837D02*
X1127D01*
X863Y453D02*
Y477D01*
X907Y453D02*
Y477D01*
X863D02*
X907D01*
X863Y453D02*
X907D01*
X907Y323D02*
Y347D01*
X863Y323D02*
Y347D01*
Y323D02*
X907D01*
X863Y347D02*
X907D01*
X863Y583D02*
Y607D01*
X907Y583D02*
Y607D01*
X863D02*
X907D01*
X863Y583D02*
X907D01*
X1080Y661D02*
Y689D01*
X1150Y661D02*
Y689D01*
X1080D02*
X1150D01*
X1080Y661D02*
X1150D01*
X1103Y675D02*
X1127D01*
X1115Y663D02*
Y687D01*
X1140Y811D02*
Y839D01*
X1070Y811D02*
Y839D01*
Y811D02*
X1140D01*
X1070Y839D02*
X1140D01*
X1093Y825D02*
X1117D01*
X1105Y813D02*
Y837D01*
X850Y451D02*
Y479D01*
X920Y451D02*
Y479D01*
X850D02*
X920D01*
X850Y451D02*
X920D01*
X873Y465D02*
X897D01*
X885Y453D02*
Y477D01*
X920Y321D02*
Y349D01*
X850Y321D02*
Y349D01*
Y321D02*
X920D01*
X850Y349D02*
X920D01*
X873Y335D02*
X897D01*
X885Y323D02*
Y347D01*
X850Y581D02*
Y609D01*
X920Y581D02*
Y609D01*
X850D02*
X920D01*
X850Y581D02*
X920D01*
X873Y595D02*
X897D01*
X885Y583D02*
Y607D01*
D11*
X994Y825D02*
X1006D01*
X1000Y819D02*
Y831D01*
X994Y465D02*
X1006D01*
X1000Y459D02*
Y471D01*
X591Y135D02*
X619D01*
X605Y121D02*
Y149D01*
X591Y1035D02*
X619D01*
X605Y1021D02*
Y1049D01*
X1123Y1123D02*
X1142D01*
X1132Y1113D02*
Y1132D01*
X1248Y1123D02*
X1267D01*
X1258Y1113D02*
Y1132D01*
X1185Y1149D02*
X1205D01*
X1195Y1139D02*
Y1158D01*
X1097Y1060D02*
X1116D01*
X1106Y1050D02*
Y1070D01*
X1123Y997D02*
X1142D01*
X1132Y988D02*
Y1007D01*
X1185Y971D02*
X1205D01*
X1195Y962D02*
Y981D01*
X1248Y997D02*
X1267D01*
X1258Y988D02*
Y1007D01*
X1274Y1060D02*
X1293D01*
X1284Y1050D02*
Y1070D01*
X1136Y1060D02*
X1254D01*
X1195Y1001D02*
Y1119D01*
X1123Y213D02*
X1142D01*
X1132Y203D02*
Y222D01*
X1248Y213D02*
X1267D01*
X1258Y203D02*
Y222D01*
X1185Y239D02*
X1205D01*
X1195Y229D02*
Y248D01*
X1097Y150D02*
X1116D01*
X1106Y140D02*
Y160D01*
X1123Y87D02*
X1142D01*
X1132Y78D02*
Y97D01*
X1185Y61D02*
X1205D01*
X1195Y52D02*
Y71D01*
X1248Y87D02*
X1267D01*
X1258Y78D02*
Y97D01*
X1274Y150D02*
X1293D01*
X1284Y140D02*
Y160D01*
X1136Y150D02*
X1254D01*
X1195Y91D02*
Y209D01*
M02*
