%FSLAX23Y23*%
%MOIN*%
G70*
G01*
G75*
G04 Layer_Physical_Order=2*
G04 Layer_Color=16711680*
%ADD10O,0.022X0.039*%
%ADD11R,0.022X0.039*%
%ADD12R,0.118X0.039*%
%ADD13R,0.118X0.059*%
%ADD14R,0.024X0.020*%
%ADD15R,0.050X0.050*%
%ADD16C,0.010*%
%ADD17C,0.005*%
%ADD18R,0.740X1.090*%
%ADD19C,0.020*%
%ADD20C,0.050*%
%ADD21C,0.039*%
%ADD22C,0.236*%
G36*
X1595Y1206D02*
Y19D01*
X1591Y15D01*
X835D01*
Y1210D01*
X1591D01*
X1595Y1206D01*
D02*
G37*
G36*
X1680Y1295D02*
Y-135D01*
X855D01*
X840Y-150D01*
X835Y-148D01*
Y-5D01*
X1595D01*
X1599Y-4D01*
X1602Y-2D01*
X1612Y8D01*
X1614Y11D01*
X1615Y15D01*
Y1210D01*
X1614Y1214D01*
X1612Y1217D01*
X1602Y1227D01*
X1599Y1229D01*
X1595Y1230D01*
X835D01*
Y1300D01*
X1665D01*
X1670Y1305D01*
X1680Y1295D01*
D02*
G37*
%LPC*%
G36*
X1195Y273D02*
X1176Y272D01*
X1157Y267D01*
X1139Y260D01*
X1122Y250D01*
X1108Y237D01*
X1095Y223D01*
X1085Y206D01*
X1078Y188D01*
X1073Y169D01*
X1072Y150D01*
X1073Y131D01*
X1078Y112D01*
X1085Y94D01*
X1095Y77D01*
X1108Y63D01*
X1122Y50D01*
X1139Y40D01*
X1157Y33D01*
X1176Y28D01*
X1195Y27D01*
X1214Y28D01*
X1233Y33D01*
X1251Y40D01*
X1268Y50D01*
X1282Y63D01*
X1295Y77D01*
X1305Y94D01*
X1312Y112D01*
X1317Y131D01*
X1318Y150D01*
X1317Y169D01*
X1312Y188D01*
X1305Y206D01*
X1295Y223D01*
X1282Y237D01*
X1268Y250D01*
X1251Y260D01*
X1233Y267D01*
X1214Y272D01*
X1195Y273D01*
D02*
G37*
G36*
Y1183D02*
X1176Y1182D01*
X1157Y1177D01*
X1139Y1170D01*
X1122Y1160D01*
X1108Y1147D01*
X1095Y1133D01*
X1085Y1116D01*
X1078Y1098D01*
X1073Y1079D01*
X1072Y1060D01*
X1073Y1041D01*
X1078Y1022D01*
X1085Y1004D01*
X1095Y987D01*
X1108Y973D01*
X1122Y960D01*
X1139Y950D01*
X1157Y943D01*
X1176Y938D01*
X1195Y937D01*
X1214Y938D01*
X1233Y943D01*
X1251Y950D01*
X1268Y960D01*
X1282Y973D01*
X1295Y987D01*
X1305Y1004D01*
X1312Y1022D01*
X1317Y1041D01*
X1318Y1060D01*
X1317Y1079D01*
X1312Y1098D01*
X1305Y1116D01*
X1295Y1133D01*
X1282Y1147D01*
X1268Y1160D01*
X1251Y1170D01*
X1233Y1177D01*
X1214Y1182D01*
X1195Y1183D01*
D02*
G37*
G36*
X1000Y840D02*
X994Y839D01*
X989Y836D01*
X986Y831D01*
X985Y825D01*
X986Y819D01*
X989Y814D01*
X990Y814D01*
Y476D01*
X989Y476D01*
X986Y471D01*
X985Y465D01*
X986Y459D01*
X989Y454D01*
X994Y451D01*
X1000Y450D01*
X1006Y451D01*
X1011Y454D01*
X1014Y459D01*
X1015Y465D01*
X1014Y471D01*
X1011Y476D01*
X1010Y476D01*
Y814D01*
X1011Y814D01*
X1014Y819D01*
X1015Y825D01*
X1014Y831D01*
X1011Y836D01*
X1006Y839D01*
X1000Y840D01*
D02*
G37*
%LPD*%
D16*
Y465D02*
Y825D01*
D18*
X425Y600D02*
D03*
D19*
X1000Y825D02*
D03*
Y465D02*
D03*
D20*
X605Y135D02*
D03*
Y1035D02*
D03*
D21*
X1132Y1123D02*
D03*
X1258D02*
D03*
X1195Y1149D02*
D03*
X1106Y1060D02*
D03*
X1132Y997D02*
D03*
X1195Y971D02*
D03*
X1258Y997D02*
D03*
X1284Y1060D02*
D03*
X1132Y213D02*
D03*
X1258D02*
D03*
X1195Y239D02*
D03*
X1106Y150D02*
D03*
X1132Y87D02*
D03*
X1195Y61D02*
D03*
X1258Y87D02*
D03*
X1284Y150D02*
D03*
D22*
X1195Y1060D02*
D03*
Y150D02*
D03*
M02*
