%FSLAX23Y23*%
%MOIN*%
G70*
G01*
G75*
G04 Layer_Physical_Order=1*
G04 Layer_Color=255*
%ADD10O,0.022X0.039*%
%ADD11R,0.022X0.039*%
%ADD12R,0.118X0.039*%
%ADD13R,0.118X0.059*%
%ADD14R,0.024X0.020*%
%ADD15R,0.050X0.050*%
%ADD16C,0.010*%
%ADD17C,0.005*%
%ADD18R,0.740X1.090*%
%ADD19C,0.020*%
%ADD20C,0.050*%
%ADD21C,0.039*%
%ADD22C,0.236*%
G36*
X1595Y1206D02*
Y780D01*
X1591D01*
Y780D01*
X1463D01*
Y711D01*
X1591D01*
Y711D01*
X1591D01*
X1595Y707D01*
Y449D01*
X1591D01*
Y449D01*
X1463D01*
Y380D01*
X1591D01*
Y380D01*
X1591D01*
X1595Y377D01*
Y19D01*
X1591Y15D01*
X835D01*
Y339D01*
X840Y341D01*
X849Y332D01*
Y320D01*
X882D01*
Y350D01*
X882D01*
Y350D01*
X886Y354D01*
X888D01*
Y350D01*
X888D01*
Y340D01*
X900D01*
Y350D01*
X895D01*
Y354D01*
X895D01*
Y393D01*
X862D01*
X860Y398D01*
X873Y410D01*
X875Y414D01*
X876Y417D01*
X876Y417D01*
X876Y417D01*
Y417D01*
Y450D01*
X882D01*
Y480D01*
X849D01*
Y450D01*
X855D01*
Y422D01*
X840Y406D01*
X835Y408D01*
Y585D01*
X849D01*
Y580D01*
X882D01*
Y610D01*
X849D01*
Y605D01*
X835D01*
Y705D01*
X840Y705D01*
X840Y704D01*
X844Y698D01*
X849Y695D01*
X850Y695D01*
Y719D01*
Y743D01*
X849Y742D01*
X844Y739D01*
X840Y734D01*
X840Y732D01*
X835Y733D01*
Y811D01*
X840Y812D01*
X840Y810D01*
X844Y805D01*
X849Y801D01*
X855Y800D01*
X861Y801D01*
X867Y805D01*
X870Y810D01*
X871Y816D01*
Y834D01*
X870Y840D01*
X867Y845D01*
X861Y849D01*
X855Y850D01*
X849Y849D01*
X844Y845D01*
X840Y840D01*
X840Y838D01*
X835Y839D01*
Y864D01*
X873D01*
Y904D01*
X835D01*
Y1210D01*
X1591D01*
X1595Y1206D01*
D02*
G37*
G36*
X840Y1300D02*
X1685D01*
Y-130D01*
X1675Y-140D01*
X1665Y-150D01*
X835D01*
Y-5D01*
X1595D01*
X1599Y-4D01*
X1602Y-2D01*
X1612Y8D01*
X1614Y11D01*
X1615Y15D01*
Y1210D01*
X1614Y1214D01*
X1612Y1217D01*
X1602Y1227D01*
X1599Y1229D01*
X1595Y1230D01*
X835D01*
Y1298D01*
X840Y1300D01*
X840Y1300D01*
D02*
G37*
%LPC*%
G36*
X1394Y526D02*
X1335D01*
Y506D01*
X1394D01*
Y526D01*
D02*
G37*
G36*
X896Y536D02*
X843D01*
Y496D01*
X896D01*
Y536D01*
D02*
G37*
G36*
X1325Y526D02*
X1266D01*
Y506D01*
X1325D01*
Y526D01*
D02*
G37*
G36*
X1050Y570D02*
X1025D01*
Y545D01*
X1050D01*
Y570D01*
D02*
G37*
G36*
X921Y590D02*
X910D01*
Y580D01*
X921D01*
Y590D01*
D02*
G37*
G36*
X900Y610D02*
X888D01*
Y600D01*
X900D01*
Y610D01*
D02*
G37*
G36*
X1050Y605D02*
X1025D01*
Y580D01*
X1050D01*
Y605D01*
D02*
G37*
G36*
X900Y590D02*
X888D01*
Y580D01*
X900D01*
Y590D01*
D02*
G37*
G36*
X900Y330D02*
X888D01*
Y320D01*
X900D01*
Y330D01*
D02*
G37*
G36*
X921D02*
X910D01*
Y320D01*
X921D01*
Y330D01*
D02*
G37*
G36*
X1195Y273D02*
X1176Y272D01*
X1157Y267D01*
X1139Y260D01*
X1122Y250D01*
X1108Y237D01*
X1095Y223D01*
X1085Y206D01*
X1078Y188D01*
X1073Y169D01*
X1072Y150D01*
X1073Y131D01*
X1078Y112D01*
X1085Y94D01*
X1095Y77D01*
X1108Y63D01*
X1122Y50D01*
X1139Y40D01*
X1157Y33D01*
X1176Y28D01*
X1195Y27D01*
X1214Y28D01*
X1233Y33D01*
X1251Y40D01*
X1268Y50D01*
X1282Y63D01*
X1295Y77D01*
X1305Y94D01*
X1312Y112D01*
X1317Y131D01*
X1318Y150D01*
X1317Y169D01*
X1312Y188D01*
X1305Y206D01*
X1295Y223D01*
X1282Y237D01*
X1268Y250D01*
X1251Y260D01*
X1233Y267D01*
X1214Y272D01*
X1195Y273D01*
D02*
G37*
G36*
X1396Y315D02*
X1266D01*
Y275D01*
X1396D01*
Y315D01*
D02*
G37*
G36*
X1325Y496D02*
X1266D01*
Y477D01*
X1325D01*
Y496D01*
D02*
G37*
G36*
X1394D02*
X1335D01*
Y477D01*
X1394D01*
Y496D01*
D02*
G37*
G36*
X921Y350D02*
X910D01*
Y340D01*
X921D01*
Y350D01*
D02*
G37*
G36*
X1000Y480D02*
X994Y479D01*
X989Y476D01*
X989Y475D01*
X921D01*
Y480D01*
X888D01*
Y450D01*
X921D01*
Y455D01*
X989D01*
X989Y454D01*
X994Y451D01*
X1000Y450D01*
X1006Y451D01*
X1011Y454D01*
X1014Y459D01*
X1015Y465D01*
X1014Y471D01*
X1011Y476D01*
X1006Y479D01*
X1000Y480D01*
D02*
G37*
G36*
X921Y610D02*
X910D01*
Y600D01*
X921D01*
Y610D01*
D02*
G37*
G36*
X909Y820D02*
X898D01*
Y801D01*
X899Y801D01*
X904Y805D01*
X908Y810D01*
X909Y816D01*
Y820D01*
D02*
G37*
G36*
X946Y850D02*
X914D01*
Y800D01*
X946D01*
Y815D01*
X989D01*
X989Y814D01*
X994Y811D01*
X1000Y810D01*
X1006Y811D01*
X1011Y814D01*
X1011Y815D01*
X1069D01*
Y810D01*
X1102D01*
Y840D01*
X1069D01*
Y835D01*
X1011D01*
X1011Y836D01*
X1006Y839D01*
X1000Y840D01*
X994Y839D01*
X989Y836D01*
X989Y835D01*
X946D01*
Y850D01*
D02*
G37*
G36*
X1315Y840D02*
X1262D01*
Y800D01*
X1315D01*
Y840D01*
D02*
G37*
G36*
X888Y820D02*
X876D01*
Y816D01*
X878Y810D01*
X881Y805D01*
X886Y801D01*
X888Y801D01*
Y820D01*
D02*
G37*
G36*
X1110Y896D02*
X1063D01*
Y856D01*
X1110D01*
Y896D01*
D02*
G37*
G36*
X1195Y1183D02*
X1176Y1182D01*
X1157Y1177D01*
X1139Y1170D01*
X1122Y1160D01*
X1108Y1147D01*
X1095Y1133D01*
X1085Y1116D01*
X1078Y1098D01*
X1073Y1079D01*
X1072Y1060D01*
X1073Y1041D01*
X1078Y1022D01*
X1085Y1004D01*
X1095Y987D01*
X1108Y973D01*
X1122Y960D01*
X1139Y950D01*
X1157Y943D01*
X1176Y938D01*
X1195Y937D01*
X1214Y938D01*
X1233Y943D01*
X1251Y950D01*
X1268Y960D01*
X1282Y973D01*
X1295Y987D01*
X1305Y1004D01*
X1312Y1022D01*
X1317Y1041D01*
X1318Y1060D01*
X1317Y1079D01*
X1312Y1098D01*
X1305Y1116D01*
X1295Y1133D01*
X1282Y1147D01*
X1268Y1160D01*
X1251Y1170D01*
X1233Y1177D01*
X1214Y1182D01*
X1195Y1183D01*
D02*
G37*
G36*
X888Y849D02*
X886Y849D01*
X881Y845D01*
X878Y840D01*
X876Y834D01*
Y830D01*
X888D01*
Y849D01*
D02*
G37*
G36*
X898D02*
Y830D01*
X909D01*
Y834D01*
X908Y840D01*
X904Y845D01*
X899Y849D01*
X898Y849D01*
D02*
G37*
G36*
X935Y743D02*
Y724D01*
X946D01*
Y728D01*
X945Y734D01*
X941Y739D01*
X936Y742D01*
X935Y743D01*
D02*
G37*
G36*
X871Y714D02*
X860D01*
Y695D01*
X861Y695D01*
X867Y698D01*
X870Y704D01*
X871Y710D01*
Y714D01*
D02*
G37*
G36*
X925D02*
X914D01*
Y710D01*
X915Y704D01*
X919Y698D01*
X924Y695D01*
X925Y695D01*
Y714D01*
D02*
G37*
G36*
X893Y744D02*
X886Y742D01*
X881Y739D01*
X878Y734D01*
X876Y728D01*
Y710D01*
X878Y704D01*
X881Y698D01*
X885Y696D01*
X885Y695D01*
X909Y671D01*
X908Y666D01*
X906D01*
Y627D01*
X1120D01*
Y660D01*
X1125D01*
Y605D01*
X1105D01*
Y603D01*
X1085D01*
Y605D01*
X1060D01*
Y575D01*
Y545D01*
X1085D01*
Y563D01*
X1105D01*
Y545D01*
X1165D01*
Y565D01*
X1266D01*
Y555D01*
X1394D01*
Y605D01*
X1266D01*
Y585D01*
X1165D01*
Y605D01*
X1145D01*
Y660D01*
X1151D01*
Y690D01*
X1118D01*
Y666D01*
X1112D01*
Y690D01*
X1079D01*
Y685D01*
X924D01*
X907Y703D01*
X908Y704D01*
X909Y710D01*
Y728D01*
X908Y734D01*
X904Y739D01*
X899Y742D01*
X893Y744D01*
D02*
G37*
G36*
X1141Y840D02*
X1108D01*
Y810D01*
X1141D01*
Y815D01*
X1160D01*
X1286Y688D01*
X1284Y683D01*
X1266D01*
Y634D01*
X1394D01*
Y683D01*
X1320D01*
X1171Y832D01*
X1168Y834D01*
X1164Y835D01*
X1141D01*
Y840D01*
D02*
G37*
G36*
X860Y743D02*
Y724D01*
X871D01*
Y728D01*
X870Y734D01*
X867Y739D01*
X861Y742D01*
X860Y743D01*
D02*
G37*
G36*
X925D02*
X924Y742D01*
X919Y739D01*
X915Y734D01*
X914Y728D01*
Y724D01*
X925D01*
Y743D01*
D02*
G37*
G36*
X946Y714D02*
X935D01*
Y695D01*
X936Y695D01*
X941Y698D01*
X945Y704D01*
X946Y710D01*
Y714D01*
D02*
G37*
G36*
X1139Y753D02*
X1066D01*
Y714D01*
X1090D01*
Y695D01*
X1137D01*
Y714D01*
X1139D01*
Y753D01*
D02*
G37*
%LPD*%
D10*
X855Y719D02*
D03*
X893D02*
D03*
X930D02*
D03*
X855Y825D02*
D03*
X893D02*
D03*
D11*
X930D02*
D03*
D12*
X1330Y659D02*
D03*
Y580D02*
D03*
Y501D02*
D03*
Y659D02*
D03*
D13*
X1527Y745D02*
D03*
Y415D02*
D03*
D14*
X1095Y675D02*
D03*
X1135D02*
D03*
X1125Y825D02*
D03*
X1085D02*
D03*
X865Y465D02*
D03*
X905D02*
D03*
X905Y335D02*
D03*
X865D02*
D03*
X865Y595D02*
D03*
X905D02*
D03*
D15*
X1055Y575D02*
D03*
X1135D02*
D03*
D16*
X920Y675D02*
X1095D01*
X893Y702D02*
X920Y675D01*
X893Y702D02*
Y719D01*
X865Y417D02*
Y465D01*
X840Y393D02*
X865Y417D01*
X840Y354D02*
Y393D01*
Y354D02*
X860Y335D01*
X1135Y585D02*
Y675D01*
X930Y825D02*
X1000D01*
X1085D01*
X905Y465D02*
X1000D01*
X1125Y825D02*
X1164D01*
X1330Y659D01*
X1135Y575D02*
X1325D01*
X630Y825D02*
X855D01*
X720Y595D02*
X865D01*
X720Y595D02*
X720Y595D01*
D17*
X1073Y866D02*
Y886D01*
X1083D01*
X1086Y883D01*
Y876D01*
X1083Y873D01*
X1073D01*
X1080D02*
X1086Y866D01*
X1093D02*
X1100D01*
X1096D01*
Y886D01*
X1093Y883D01*
X1113Y722D02*
X1110Y725D01*
X1103D01*
X1100Y722D01*
Y708D01*
X1103Y705D01*
X1110D01*
X1113Y708D01*
X1120Y705D02*
X1127D01*
X1123D01*
Y725D01*
X1120Y722D01*
X849Y894D02*
X843D01*
X846D01*
Y877D01*
X843Y874D01*
X839D01*
X836Y877D01*
X856Y874D02*
X863D01*
X859D01*
Y894D01*
X856Y891D01*
X1285Y830D02*
X1279D01*
X1282D01*
Y813D01*
X1279Y810D01*
X1275D01*
X1272Y813D01*
X1305Y810D02*
X1292D01*
X1305Y823D01*
Y827D01*
X1302Y830D01*
X1295D01*
X1292Y827D01*
D18*
X425Y600D02*
D03*
D19*
X1000Y825D02*
D03*
Y465D02*
D03*
D20*
X605Y135D02*
D03*
Y1035D02*
D03*
D21*
X1132Y1123D02*
D03*
X1258D02*
D03*
X1195Y1149D02*
D03*
X1106Y1060D02*
D03*
X1132Y997D02*
D03*
X1195Y971D02*
D03*
X1258Y997D02*
D03*
X1284Y1060D02*
D03*
X1132Y213D02*
D03*
X1258D02*
D03*
X1195Y239D02*
D03*
X1106Y150D02*
D03*
X1132Y87D02*
D03*
X1195Y61D02*
D03*
X1258Y87D02*
D03*
X1284Y150D02*
D03*
D22*
X1195Y1060D02*
D03*
Y150D02*
D03*
M02*
