%FSLAX23Y23*%
%MOIN*%
G70*
G01*
G75*
G04 Layer_Color=16711935*
%ADD10O,0.022X0.039*%
%ADD11R,0.022X0.039*%
%ADD12R,0.118X0.039*%
%ADD13R,0.118X0.059*%
%ADD14R,0.024X0.020*%
%ADD15R,0.050X0.050*%
%ADD16C,0.010*%
%ADD17C,0.005*%
%ADD18R,0.740X1.090*%
%ADD19C,0.020*%
%ADD20C,0.050*%
%ADD21C,0.039*%
%ADD22C,0.236*%
%ADD23C,0.008*%
%ADD24C,0.004*%
%ADD25C,0.059*%
%ADD26R,0.605X0.930*%
%ADD27O,0.030X0.047*%
%ADD28R,0.030X0.047*%
%ADD29R,0.126X0.047*%
%ADD30R,0.126X0.067*%
%ADD31R,0.032X0.028*%
%ADD32R,0.058X0.058*%
%ADD33C,0.028*%
%ADD34C,0.058*%
%ADD35R,0.525X0.955*%
D21*
X1132Y1123D02*
D03*
X1258D02*
D03*
X1195Y1149D02*
D03*
X1106Y1060D02*
D03*
X1132Y997D02*
D03*
X1195Y971D02*
D03*
X1258Y997D02*
D03*
X1284Y1060D02*
D03*
X1132Y213D02*
D03*
X1258D02*
D03*
X1195Y239D02*
D03*
X1106Y150D02*
D03*
X1132Y87D02*
D03*
X1195Y61D02*
D03*
X1258Y87D02*
D03*
X1284Y150D02*
D03*
D22*
X1195Y1060D02*
D03*
Y150D02*
D03*
D25*
X1284Y1060D02*
G03*
X1284Y1060I-89J0D01*
G01*
Y150D02*
G03*
X1284Y150I-89J0D01*
G01*
D33*
X1000Y825D02*
D03*
Y465D02*
D03*
D34*
X605Y135D02*
D03*
Y1035D02*
D03*
D35*
X423Y592D02*
D03*
M02*
